<svg width="210" height="58" viewBox="0 0 210 58" fill="none" xmlns="http://www.w3.org/2000/svg">
<path d="M57 28.5C57 44.2401 44.2401 57 28.5 57C12.7599 57 0 44.2401 0 28.5C0 12.7599 12.7599 0 28.5 0C44.2401 0 57 12.7599 57 28.5Z" fill="url(#paint0_linear_126_15)"/>
<g filter="url(#filter0_d_126_15)">
<path d="M22.1735 15L5.67 18C4.65255 18 3.87165 18.9006 4.01759 19.9057L4.80826 25.3515C4.92725 26.1711 5.63104 26.7791 6.46067 26.7791H18.8291C18.2765 34.0515 21.6653 48.1565 38.8411 49.8354C39.4164 49.8916 39.6163 48.9473 39.1029 48.6816C35.5521 46.8442 31.5 43.4274 31.5 38.3333C31.2453 34.4819 33.3869 26.7791 43.9903 26.7791H50.5393C51.369 26.7791 52.0728 26.1711 52.1917 25.3515L52.9824 19.9057C53.1283 18.9006 52.3474 18 51.33 18L34.8265 15C34.0289 18.0356 32.0494 20.1498 28.5 20.1498C24.9506 20.1498 22.9711 18.0356 22.1735 15Z" fill="#F4F4F4"/>
</g>
<path d="M68.488 24.512V35.492C68.488 36.236 68.656 36.776 68.992 37.112C69.352 37.424 69.952 37.58 70.792 37.58H73.312V41H70.072C68.224 41 66.808 40.568 65.824 39.704C64.84 38.84 64.348 37.436 64.348 35.492V24.512H62.008V21.164H64.348V16.232H68.488V21.164H73.312V24.512H68.488Z" fill="#121212"/>
<path d="M95.4545 30.596C95.4545 31.34 95.4065 32.012 95.3105 32.612H80.1545C80.2745 34.196 80.8625 35.468 81.9185 36.428C82.9745 37.388 84.2705 37.868 85.8065 37.868C88.0145 37.868 89.5745 36.944 90.4865 35.096H94.9145C94.3145 36.92 93.2225 38.42 91.6385 39.596C90.0785 40.748 88.1345 41.324 85.8065 41.324C83.9105 41.324 82.2065 40.904 80.6945 40.064C79.2065 39.2 78.0305 38 77.1665 36.464C76.3265 34.904 75.9065 33.104 75.9065 31.064C75.9065 29.024 76.3145 27.236 77.1305 25.7C77.9705 24.14 79.1345 22.94 80.6225 22.1C82.1345 21.26 83.8625 20.84 85.8065 20.84C87.6785 20.84 89.3465 21.248 90.8105 22.064C92.2745 22.88 93.4145 24.032 94.2305 25.52C95.0465 26.984 95.4545 28.676 95.4545 30.596ZM91.1705 29.3C91.1465 27.788 90.6065 26.576 89.5505 25.664C88.4945 24.752 87.1865 24.296 85.6265 24.296C84.2105 24.296 82.9985 24.752 81.9905 25.664C80.9825 26.552 80.3825 27.764 80.1905 29.3H91.1705Z" fill="#121212"/>
<path d="M117.853 30.596C117.853 31.34 117.805 32.012 117.709 32.612H102.553C102.673 34.196 103.261 35.468 104.317 36.428C105.373 37.388 106.669 37.868 108.205 37.868C110.413 37.868 111.973 36.944 112.885 35.096H117.313C116.713 36.92 115.621 38.42 114.037 39.596C112.477 40.748 110.533 41.324 108.205 41.324C106.309 41.324 104.605 40.904 103.093 40.064C101.605 39.2 100.429 38 99.5653 36.464C98.7253 34.904 98.3053 33.104 98.3053 31.064C98.3053 29.024 98.7133 27.236 99.5293 25.7C100.369 24.14 101.533 22.94 103.021 22.1C104.533 21.26 106.261 20.84 108.205 20.84C110.077 20.84 111.745 21.248 113.209 22.064C114.673 22.88 115.813 24.032 116.629 25.52C117.445 26.984 117.853 28.676 117.853 30.596ZM113.569 29.3C113.545 27.788 113.005 26.576 111.949 25.664C110.893 24.752 109.585 24.296 108.025 24.296C106.609 24.296 105.397 24.752 104.389 25.664C103.381 26.552 102.781 27.764 102.589 29.3H113.569Z" fill="#121212"/>
<path d="M136.112 28.112C137.528 28.376 138.692 29.084 139.604 30.236C140.516 31.388 140.972 32.708 140.972 34.196C140.972 35.54 140.636 36.728 139.964 37.76C139.316 38.768 138.368 39.56 137.12 40.136C135.872 40.712 134.396 41 132.692 41H121.856V15.872H132.224C133.928 15.872 135.392 16.148 136.616 16.7C137.864 17.252 138.8 18.02 139.424 19.004C140.072 19.988 140.396 21.104 140.396 22.352C140.396 23.816 140 25.04 139.208 26.024C138.44 27.008 137.408 27.704 136.112 28.112ZM126.896 26.24H131.504C132.704 26.24 133.628 25.976 134.276 25.448C134.924 24.896 135.248 24.116 135.248 23.108C135.248 22.1 134.924 21.32 134.276 20.768C133.628 20.216 132.704 19.94 131.504 19.94H126.896V26.24ZM131.972 36.896C133.196 36.896 134.144 36.608 134.816 36.032C135.512 35.456 135.86 34.64 135.86 33.584C135.86 32.504 135.5 31.664 134.78 31.064C134.06 30.44 133.088 30.128 131.864 30.128H126.896V36.896H131.972Z" fill="url(#paint1_linear_126_15)"/>
<path d="M143.873 30.956C143.873 28.94 144.269 27.152 145.061 25.592C145.877 24.032 146.969 22.832 148.337 21.992C149.729 21.152 151.277 20.732 152.981 20.732C154.469 20.732 155.765 21.032 156.869 21.632C157.997 22.232 158.897 22.988 159.569 23.9V21.056H164.645V41H159.569V38.084C158.921 39.02 158.021 39.8 156.869 40.424C155.741 41.024 154.433 41.324 152.945 41.324C151.265 41.324 149.729 40.892 148.337 40.028C146.969 39.164 145.877 37.952 145.061 36.392C144.269 34.808 143.873 32.996 143.873 30.956ZM159.569 31.028C159.569 29.804 159.329 28.76 158.849 27.896C158.369 27.008 157.721 26.336 156.905 25.88C156.089 25.4 155.213 25.16 154.277 25.16C153.341 25.16 152.477 25.388 151.685 25.844C150.893 26.3 150.245 26.972 149.741 27.86C149.261 28.724 149.021 29.756 149.021 30.956C149.021 32.156 149.261 33.212 149.741 34.124C150.245 35.012 150.893 35.696 151.685 36.176C152.501 36.656 153.365 36.896 154.277 36.896C155.213 36.896 156.089 36.668 156.905 36.212C157.721 35.732 158.369 35.06 158.849 34.196C159.329 33.308 159.569 32.252 159.569 31.028Z" fill="url(#paint2_linear_126_15)"/>
<path d="M177.559 20.732C179.047 20.732 180.355 21.032 181.483 21.632C182.611 22.208 183.499 22.964 184.147 23.9V21.056H189.223V41.144C189.223 42.992 188.851 44.636 188.107 46.076C187.363 47.54 186.247 48.692 184.759 49.532C183.271 50.396 181.471 50.828 179.359 50.828C176.527 50.828 174.199 50.168 172.375 48.848C170.575 47.528 169.555 45.728 169.315 43.448H174.319C174.583 44.36 175.147 45.08 176.011 45.608C176.899 46.16 177.967 46.436 179.215 46.436C180.679 46.436 181.867 45.992 182.779 45.104C183.691 44.24 184.147 42.92 184.147 41.144V38.048C183.499 38.984 182.599 39.764 181.447 40.388C180.319 41.012 179.023 41.324 177.559 41.324C175.879 41.324 174.343 40.892 172.951 40.028C171.559 39.164 170.455 37.952 169.639 36.392C168.847 34.808 168.451 32.996 168.451 30.956C168.451 28.94 168.847 27.152 169.639 25.592C170.455 24.032 171.547 22.832 172.915 21.992C174.307 21.152 175.855 20.732 177.559 20.732ZM184.147 31.028C184.147 29.804 183.907 28.76 183.427 27.896C182.947 27.008 182.299 26.336 181.483 25.88C180.667 25.4 179.791 25.16 178.855 25.16C177.919 25.16 177.055 25.388 176.263 25.844C175.471 26.3 174.823 26.972 174.319 27.86C173.839 28.724 173.599 29.756 173.599 30.956C173.599 32.156 173.839 33.212 174.319 34.124C174.823 35.012 175.471 35.696 176.263 36.176C177.079 36.656 177.943 36.896 178.855 36.896C179.791 36.896 180.667 36.668 181.483 36.212C182.299 35.732 182.947 35.06 183.427 34.196C183.907 33.308 184.147 32.252 184.147 31.028Z" fill="url(#paint3_linear_126_15)"/>
<path d="M201.958 41.324C200.326 41.324 198.862 41.036 197.566 40.46C196.27 39.86 195.238 39.056 194.47 38.048C193.726 37.04 193.318 35.924 193.246 34.7H198.322C198.418 35.468 198.79 36.104 199.438 36.608C200.11 37.112 200.938 37.364 201.922 37.364C202.882 37.364 203.626 37.172 204.154 36.788C204.706 36.404 204.982 35.912 204.982 35.312C204.982 34.664 204.646 34.184 203.974 33.872C203.326 33.536 202.282 33.176 200.842 32.792C199.354 32.432 198.13 32.06 197.17 31.676C196.234 31.292 195.418 30.704 194.722 29.912C194.05 29.12 193.714 28.052 193.714 26.708C193.714 25.604 194.026 24.596 194.65 23.684C195.298 22.772 196.21 22.052 197.386 21.524C198.586 20.996 199.99 20.732 201.598 20.732C203.974 20.732 205.87 21.332 207.286 22.532C208.702 23.708 209.482 25.304 209.626 27.32H204.802C204.73 26.528 204.394 25.904 203.794 25.448C203.218 24.968 202.438 24.728 201.454 24.728C200.542 24.728 199.834 24.896 199.33 25.232C198.85 25.568 198.61 26.036 198.61 26.636C198.61 27.308 198.946 27.824 199.618 28.184C200.29 28.52 201.334 28.868 202.75 29.228C204.19 29.588 205.378 29.96 206.314 30.344C207.25 30.728 208.054 31.328 208.726 32.144C209.422 32.936 209.782 33.992 209.806 35.312C209.806 36.464 209.482 37.496 208.834 38.408C208.21 39.32 207.298 40.04 206.098 40.568C204.922 41.072 203.542 41.324 201.958 41.324Z" fill="url(#paint4_linear_126_15)"/>
<defs>
<filter id="filter0_d_126_15" x="0" y="15" width="57" height="42.8378" filterUnits="userSpaceOnUse" color-interpolation-filters="sRGB">
<feFlood flood-opacity="0" result="BackgroundImageFix"/>
<feColorMatrix in="SourceAlpha" type="matrix" values="0 0 0 0 0 0 0 0 0 0 0 0 0 0 0 0 0 0 127 0" result="hardAlpha"/>
<feOffset dy="4"/>
<feGaussianBlur stdDeviation="2"/>
<feComposite in2="hardAlpha" operator="out"/>
<feColorMatrix type="matrix" values="0 0 0 0 0 0 0 0 0 0 0 0 0 0 0 0 0 0 0.25 0"/>
<feBlend mode="normal" in2="BackgroundImageFix" result="effect1_dropShadow_126_15"/>
<feBlend mode="normal" in="SourceGraphic" in2="effect1_dropShadow_126_15" result="shape"/>
</filter>
<linearGradient id="paint0_linear_126_15" x1="14.5" y1="7" x2="48.5" y2="51.5" gradientUnits="userSpaceOnUse">
<stop stop-color="#56B6FC" stop-opacity="0.95"/>
<stop offset="1" stop-color="#0BCE9F" stop-opacity="0.85"/>
</linearGradient>
<linearGradient id="paint1_linear_126_15" x1="122.5" y1="40" x2="210" y2="26.5" gradientUnits="userSpaceOnUse">
<stop stop-color="#0BCE9F" stop-opacity="0.85"/>
<stop offset="1" stop-color="#56B6FC" stop-opacity="0.95"/>
</linearGradient>
<linearGradient id="paint2_linear_126_15" x1="122.5" y1="40" x2="210" y2="26.5" gradientUnits="userSpaceOnUse">
<stop stop-color="#0BCE9F" stop-opacity="0.85"/>
<stop offset="1" stop-color="#56B6FC" stop-opacity="0.95"/>
</linearGradient>
<linearGradient id="paint3_linear_126_15" x1="122.5" y1="40" x2="210" y2="26.5" gradientUnits="userSpaceOnUse">
<stop stop-color="#0BCE9F" stop-opacity="0.85"/>
<stop offset="1" stop-color="#56B6FC" stop-opacity="0.95"/>
</linearGradient>
<linearGradient id="paint4_linear_126_15" x1="122.5" y1="40" x2="210" y2="26.5" gradientUnits="userSpaceOnUse">
<stop stop-color="#0BCE9F" stop-opacity="0.85"/>
<stop offset="1" stop-color="#56B6FC" stop-opacity="0.95"/>
</linearGradient>
</defs>
</svg>
